<svg xmlns="http://www.w3.org/2000/svg" width="96" height="96" viewBox="0 0 96 96">
  <g id="Grupo_1206936" data-name="Grupo 1206936" transform="translate(7540.958 5717.848)">
    <path id="Elipse_5729" data-name="Elipse 5729" d="M48,0A48,48,0,1,1,0,48,48,48,0,0,1,48,0Z" transform="translate(-7540.958 -5717.848)" fill="#9db89a"/>
    <g id="Grupo_1206831" data-name="Grupo 1206831" transform="translate(-8169.084 -6313.299)">
      <path id="Trazado_1281898" data-name="Trazado 1281898" d="M673.624,675.047H648.932c.161-3.676,1.36-6.775,4.577-8.791a9.624,9.624,0,0,1,2.234-1.033,1.037,1.037,0,0,0,.867-1.149,13.477,13.477,0,0,1-8.461-10.323c-.582-.051-1.149-.064-1.7-.158a2.953,2.953,0,0,1-2.464-2.4,2.881,2.881,0,0,1,1.327-3.088,1.216,1.216,0,0,0,.659-1.223,27.232,27.232,0,0,1,.509-7.473.816.816,0,0,0-.205-.65,9.488,9.488,0,0,0-1.088-.84c.65-.593,1.109-1.009,1.565-1.428a1.2,1.2,0,0,0,.386-1.388,1.233,1.233,0,0,0-1.277-.811c-.618.008-1.236,0-1.895,0V624.107c.62,0,1.233-.01,1.845,0a1.25,1.25,0,0,0,1.306-.769,1.22,1.22,0,0,0-.4-1.459c-.445-.4-.9-.783-1.3-1.137l7.438-7.408c.306.377.687.868,1.091,1.339a1.185,1.185,0,0,0,1.457.379,1.27,1.27,0,0,0,.759-1.315c-.013-.592,0-1.185,0-1.826h10.18c0,.58.014,1.115,0,1.649a1.364,1.364,0,0,0,.749,1.493,1.3,1.3,0,0,0,1.584-.5c.352-.409.711-.812,1.124-1.283a11.405,11.405,0,0,1,1.183,1.157,1.778,1.778,0,0,0,1.865.667,25.877,25.877,0,0,1,8.649.461,28.172,28.172,0,0,1,8.541,3.326c.21.122.427.233.651.355a24.267,24.267,0,0,1,.546-2.452,7.174,7.174,0,0,1,6.71-4.919,11.215,11.215,0,0,1,4.7.56,7.265,7.265,0,0,1,3.462,10.365,9.038,9.038,0,0,0-1.315,3,5.2,5.2,0,0,1-1.826,2.915,1.08,1.08,0,0,0,.354,1.91,5.891,5.891,0,0,1,3.4,3.732,26.827,26.827,0,0,1,.546,4h-3.613c.094.946.165,1.764.259,2.579a25.99,25.99,0,0,1-.356,7.732c-.088.478-.158.848.375,1.225a7.188,7.188,0,0,1,1.939,10.029,6.273,6.273,0,0,0-1,2.309,5.6,5.6,0,0,1-1.943,3.23,1.067,1.067,0,0,0,.191,1.786c3.373,1.536,4.264,4.32,3.943,7.791H690.91c-.51-3.661.792-6.414,3.854-7.779a1.085,1.085,0,0,0,.256-1.769c-.19-.169-.381-.336-.643-.566a29.009,29.009,0,0,1-9.913,5.68,29.406,29.406,0,0,1-11.29,1.359Zm-1.167-25.492v-1.537c0-2.8-.077-2.9-2.68-3.9a1.468,1.468,0,0,0-1.419.005,3.515,3.515,0,0,1-1.634.372c-3.642.031-7.284.023-10.926.006a2.427,2.427,0,0,1-1.318-.235c-.86-.617-1.6-.231-2.373.089l-.552.226a2.087,2.087,0,0,0-1.519,2.209c-.01,1.566-.1,3.14.026,4.7a17.089,17.089,0,0,0,.751,4.164,11.051,11.051,0,0,0,10.584,7.191,11.25,11.25,0,0,0,10.39-7.385A16.441,16.441,0,0,0,672.457,649.556Zm1.913-4.255c.47-5.55-1.377-10.086-6.149-13.048a12.5,12.5,0,0,0-14.034.052c-4.759,3-6.56,7.551-6.083,13.108.62-2.041,2.4-2.665,4.094-3.28-.3-2.515.368-3.745,2.488-4.61l.873,1.741c-.3.174-.553.3-.784.461a1.412,1.412,0,0,0-.6,1.569,1.286,1.286,0,0,0,1.235,1.121q5.846.044,11.692,0a1.271,1.271,0,0,0,1.217-1.139,1.408,1.408,0,0,0-.625-1.56c-.233-.154-.48-.287-.769-.458l.906-1.76a3.742,3.742,0,0,1,2.448,4.658C672.021,642.734,673.693,643.36,674.37,645.3Zm10.517,9.391a32.617,32.617,0,0,0,.541-19.908c-.121-.427-.375-.494-.756-.492q-3.967.014-7.933,0a1.284,1.284,0,0,0-1.339.714,1.263,1.263,0,0,0,.394,1.536c.443.393.879.794,1.451,1.311a14.119,14.119,0,0,0-1.069.948.728.728,0,0,0-.183.57,22.89,22.89,0,0,1,.546,6.607.985.985,0,0,0,.527,1.026,2.9,2.9,0,0,1,1.386,3.362,3.007,3.007,0,0,1-2.849,2.279c-.362.023-.726,0-1.122,0l-.311,2.04Zm5.961.008c.084-.289.146-.507.211-.724a7.244,7.244,0,0,1,7.142-5.388c1.072-.011,2.144,0,3.291,0a24.917,24.917,0,0,0-.013-10.237H690.772c.074-1.395.142-2.685.211-3.983H687.4a35.275,35.275,0,0,1,1.344,10.182,37.2,37.2,0,0,1-1.68,10.151ZM645.99,632.212a3.567,3.567,0,0,1,3.048,2.041,9.154,9.154,0,0,1,.879-1,1.359,1.359,0,0,0,.429-1.575,10.419,10.419,0,0,1-.108-4.566,11.182,11.182,0,0,1,17.892-6.732,10.9,10.9,0,0,1,4,11.5,1.267,1.267,0,0,0,.025.858,16.955,16.955,0,0,0,1.323,1.514,3.554,3.554,0,0,1,3.068-2.053v-6.021a3.341,3.341,0,0,1-2.485-5.525l-4.232-4.307c-1.866,1.57-5.052,1.046-5.631-2.39h-5.919a3.4,3.4,0,0,1-5.659,2.386l-4.224,4.21c1.643,2.886,1.006,4.436-2.406,5.717Zm31.557-15.168c1.014,1.442,1.892,2.726,2.807,3.985a41.985,41.985,0,0,1,6.169,10.757c.151.435.437.446.793.444,1.223-.006,2.447-.029,3.669.007a2.46,2.46,0,0,0,2.286-.787,2.186,2.186,0,0,1,.989-.645,1.627,1.627,0,0,0,1.177-1.651c-1.374-1.259-2.061-2.087-2.283-3.207a5.458,5.458,0,0,0-1.2-2.57c-.343-.4-.487-1.028-.888-1.324A25.983,25.983,0,0,0,677.547,617.044Zm6.5,39.684c-3.446,0-6.8-.007-10.151.017a.785.785,0,0,0-.577.377,14.417,14.417,0,0,1-3.69,4.794l5.868,7.478C678.671,665.358,682.124,661.667,684.046,656.728Zm6.764,0c-1.416,0-2.775-.025-4.13.026-.214.008-.508.326-.609.567a36.719,36.719,0,0,1-5.591,9.124c-.877,1.068-1.726,2.158-2.632,3.294,4.232.074,11.211-2.516,15.429-6.668a6.526,6.526,0,0,0-.655-2.026A8.739,8.739,0,0,1,690.81,656.729Zm-38.464-25.761c1.675-.816,1.675-.816,1.815-2.49a7.117,7.117,0,0,1,9.686-5.9,6.971,6.971,0,0,1,4.522,6.716,1.152,1.152,0,0,0,.287.792,13.43,13.43,0,0,0,1.5.934c1-3.118-.648-7.219-3.716-9.373a9.173,9.173,0,0,0-10.835.317A8.851,8.851,0,0,0,652.345,630.969Zm50.626-7.975c-.062-.375.332-1.248-.59-1.772-1.035-.589-2.035-1.238-3.071-1.824a.814.814,0,0,0-.683-.009c-1.085.616-2.163,1.247-3.2,1.939a1.324,1.324,0,0,0-.522.9,12.5,12.5,0,0,0,.066,2.632,4.041,4.041,0,0,0,5.617,2.967C702.483,626.942,703.159,625.369,702.971,622.993Zm.038,37.255a4.985,4.985,0,0,0-.021-1.248,1.945,1.945,0,0,0-.606-1.026,32.866,32.866,0,0,0-2.994-1.8,1.1,1.1,0,0,0-.9.022,33.443,33.443,0,0,0-2.92,1.762,1.6,1.6,0,0,0-.656,1,10.608,10.608,0,0,0,.035,2.469,4.075,4.075,0,0,0,8.065-1.173Zm-9.893-39.54a9.452,9.452,0,0,1,1.225-1.118c1.363-.873,2.755-1.7,4.159-2.506a.967.967,0,0,1,.83-.042c1.815,1.186,3.889,1.983,5.425,3.594a5.1,5.1,0,0,0-2.939-6.344,9.279,9.279,0,0,0-4.379-.336A5.18,5.18,0,0,0,693.117,620.708Zm-.008,36.718a10.287,10.287,0,0,1,1.287-1.165c1.317-.841,2.687-1.6,4.007-2.433a.894.894,0,0,1,1.141.03c1.749,1.172,3.758,1.95,5.255,3.544a5.094,5.094,0,0,0-2.509-6.144,7.784,7.784,0,0,0-6.223-.2A5.05,5.05,0,0,0,693.109,657.425Zm-8.461-25.23a52.537,52.537,0,0,0-2.5-4.844c-2.13-3.258-4.426-6.406-6.6-9.635-.484-.718-1-.852-1.918-.4l3.564,3.269c-.56.512-1,.916-1.44,1.317a1.244,1.244,0,0,0,.877,2.207c.617-.009,1.235,0,1.959,0V632.2Zm-18.319-3.13a5.03,5.03,0,0,0-2.533-4.251,4.813,4.813,0,0,0-5.326.138,4.87,4.87,0,0,0-2.282,4.092A15.321,15.321,0,0,1,666.328,629.065ZM695.7,669.108a4.035,4.035,0,0,0-2.756,3.883h12.067a4.188,4.188,0,0,0-2.934-3.909l-3.219,3.4Zm-2.823-32.844H705.07a4.426,4.426,0,0,0-2.137-3.549.738.738,0,0,0-1.1.143c-.891.985-1.826,1.931-2.847,3-1.029-1.062-1.962-1.972-2.828-2.942a.836.836,0,0,0-1.3-.123A4.264,4.264,0,0,0,692.879,636.264Zm-30.532,34.688v2.021h8.928a7.429,7.429,0,0,0-3.808-5.237l-2.841,4.7Zm-4.484,1.475-2.858-4.713A7.386,7.386,0,0,0,651.246,673h8.893v-2.03Zm7.756-8.225c.4.393.644.819.987.931a9.616,9.616,0,0,1,5.4,4.2.8.8,0,0,0,1.136.392l-5.183-6.64Zm-1.6,1.211c-.025-.666-.333-.73-.894-.7a32.459,32.459,0,0,1-3.807-.01c-.6-.037-.837.1-.829.719.812.409,1.613.828,2.432,1.209a.834.834,0,0,0,.625.019C662.387,666.26,663.209,665.825,664.018,665.414Zm34.768-32.471.329-.129c.305-1,2.12-1.141,1.449-2.682h-3.32c0,.327-.133.757.025.99A21.383,21.383,0,0,0,698.786,632.943Zm.193,36.716a17.042,17.042,0,0,1,1.335-1.426.893.893,0,0,0,.2-1.386h-3.3c.042.363-.037.823.154,1.086A18.461,18.461,0,0,0,698.979,669.659Zm-24.447-19.037c.733,0,1.475.19,1.847-.577a1.227,1.227,0,0,0-.059-1c-.416-.7-1.12-.419-1.788-.427Zm-26.553-.994c-.739-.023-1.5-.244-1.875.536a1.219,1.219,0,0,0,.076,1.018c.426.658,1.121.48,1.8.434Zm12.093,18.877-2.872-1.423-.094.155,1.423,2.32Zm3.9,1.066,1.423-2.381-.1-.114-2.872,1.427Z" transform="translate(0)" fill="#062e02"/>
      <path id="Trazado_1281899" data-name="Trazado 1281899" d="M691.837,818.027a3.026,3.026,0,0,1,3-3.063,3.056,3.056,0,1,1,.015,6.111A3.016,3.016,0,0,1,691.837,818.027Zm2.037-.01a1,1,0,1,0,1.019-1A.973.973,0,0,0,693.874,818.017Z" transform="translate(-39.738 -168.422)" fill="#062e02"/>
      <path id="Trazado_1281900" data-name="Trazado 1281900" d="M769.306,818.045a3.04,3.04,0,0,1-3.049,3.028,3.055,3.055,0,1,1,.052-6.109A3.042,3.042,0,0,1,769.306,818.045Zm-3.045-1.026a.989.989,0,0,0-1,1.041,1.053,1.053,0,0,0,1,.982,1.018,1.018,0,0,0,.994-1.064A.964.964,0,0,0,766.261,817.019Z" transform="translate(-98.902 -168.423)" fill="#062e02"/>
      <path id="Trazado_1281901" data-name="Trazado 1281901" d="M734.169,864.631l1.43,1.439c-2.17,2.165-4.829,2.526-7.732,2.269v-2.007C730.134,866.389,732.4,866.443,734.169,864.631Z" transform="translate(-69.615 -209.608)" fill="#062e02"/>
      <path id="Trazado_1281902" data-name="Trazado 1281902" d="M959.225,680.926c-1.247,1.244-2.86,1.292-4.594,1.181v-1.938c1.091-.213,2.354.24,3.272-.79Z" transform="translate(-257.653 -55.992)" fill="#062e02"/>
      <path id="Trazado_1281903" data-name="Trazado 1281903" d="M958.211,895.893l1.148,1.134c-1.3,1.437-2.942,1.423-4.692,1.308v-1.841Z" transform="translate(-257.683 -235.531)" fill="#062e02"/>
    </g>
  </g>
</svg>
