<svg xmlns="http://www.w3.org/2000/svg" width="84" height="84" viewBox="0 0 84 84">
  <g id="Grupo_1206931" data-name="Grupo 1206931" transform="translate(-185.814 -1167.014)">
    <g id="Grupo_1206839" data-name="Grupo 1206839">
      <g id="Grupo_1206524" data-name="Grupo 1206524" transform="translate(-519.814 335.014)">
        <g id="Grupo_1205499" data-name="Grupo 1205499" transform="translate(524.482 -4689.16)">
          <rect id="Rectángulo_402006" data-name="Rectángulo 402006" width="84" height="84" rx="5" transform="translate(181.146 5521.16)" fill="#66bbfc"/>
        </g>
      </g>
      <g id="Grupo_1206838" data-name="Grupo 1206838" transform="translate(-507.791 562.25)">
        <path id="Trazado_1281917" data-name="Trazado 1281917" d="M734.689,714.064a2.74,2.74,0,0,0,2.053-1.572,3.059,3.059,0,0,0,.377-1.352c-.023-.983,1.32-1.433,2.14-.825.214.159.425.319.636.481q6.3,4.806,12.585,9.622a2.392,2.392,0,0,0,1.585.512c4.859-.018,9.718-.01,14.577-.01.241,0,.484.008.723-.016a1.225,1.225,0,0,0,1.249-1.151,6.819,6.819,0,0,0,.011-.753q0-22.088,0-44.175c0-.157.005-.314,0-.471-.041-.955-.486-1.375-1.522-1.4-.723-.019-1.449.021-2.17-.018-.765-.041-1.116-.429-1.086-1.108a.928.928,0,0,1,1.008-.982,26.663,26.663,0,0,1,3.2.033,3.287,3.287,0,0,1,2.866,2.717,7.264,7.264,0,0,1,.028.847q0,22.512-.012,45.023a3.929,3.929,0,0,1-.323,1.736,3.37,3.37,0,0,1-3.208,1.861c-5.479.011-10.959.042-16.437-.029a9.709,9.709,0,0,1-2.848-.753q-8.363-2.844-16.709-5.726c-.915-.314-1.037-.428-1.041-1.287q-.019-4.192,0-8.383c0-.855.4-1.215,1.2-1.194.664.017,1.019.3,1.1.9a5.734,5.734,0,0,1,.018.753q0,2.873,0,5.746Zm2.532,1.457c2.868,1.022,5.74,2.005,8.615,2.977l.086-.168-6.75-5.152Z" transform="translate(-18.452 -46.914)" fill="#12263f"/>
        <path id="Trazado_1281918" data-name="Trazado 1281918" d="M709.123,677.993q0-13.323.01-26.647a4.547,4.547,0,0,1,.247-1.751,3.434,3.434,0,0,1,3.362-2.083c1.446-.028,2.894-.01,4.34-.01.9,0,1.792-.017,2.687.014.738.026,1.106.3,1.224.807.179.769-.239,1.282-1.121,1.357-.273.023-.551.008-.826.008-1.895,0-3.792.049-5.683-.015-1.532-.053-1.935.633-1.922,1.716.046,3.64.018,7.281.018,10.922v41.9c0,.251-.008.5,0,.753.037.949.483,1.386,1.524,1.4,2.067.021,4.134.006,6.2.008a7.938,7.938,0,0,1,.826.016.968.968,0,0,1,1.007,1.081c-.016.605-.323.927-.984,1.008a5.177,5.177,0,0,1-.619.015c-2.17,0-4.344-.067-6.51.02a3.569,3.569,0,0,1-3.806-3.491C709.157,696.009,709.123,687,709.123,677.993Z" transform="translate(0 -27.99)" fill="#12263f"/>
        <path id="Trazado_1281919" data-name="Trazado 1281919" d="M799.663,724.992c0,.45.018.888,0,1.324a1.223,1.223,0,1,1-2.445.035c-.024-.437,0-.876,0-1.346a21.417,21.417,0,0,1-1.958-1.052,25.775,25.775,0,0,1-3.205-2.35c-2.195-2.042-2.494-4.022-1.209-6.624a28.317,28.317,0,0,1,3.784-5.591c.814-.971,1.67-1.916,2.551-2.838a1.445,1.445,0,0,1,2.426-.007,39.436,39.436,0,0,1,5.811,7.4.982.982,0,0,1-.391,1.528,1.223,1.223,0,0,1-1.581-.473c-1.232-1.661-2.448-3.332-3.693-4.985-.367-.487-.81-.925-1.362-1.548-.194.259-.33.47-.5.659a31.685,31.685,0,0,0-4.772,6.571c-.995,1.985-1.07,2.861,1.011,4.67.86.748,1.878,1.345,2.975,2.118.171-1.213.359-2.195-.756-2.934a7.024,7.024,0,0,1-1.025-.926,1.037,1.037,0,0,1-.185-1.518c.433-.476.914-.522,1.648-.157l.428.21c0-.55-.026-1.019.006-1.484a1.221,1.221,0,0,1,2.437-.007c.034.466.006.935.006,1.5.263-.137.426-.233.6-.31a1.165,1.165,0,0,1,1.472.245.99.99,0,0,1-.035,1.38,11.737,11.737,0,0,1-1.379,1.269,1.508,1.508,0,0,0-.66,1.482c.037.339.007.683.007,1.218,1.764-1.028,3.378-1.959,4.367-3.53a4.162,4.162,0,0,0,.4-1.249,1.183,1.183,0,0,1,1.27-.988,1.092,1.092,0,0,1,1.073,1.163,4.232,4.232,0,0,1-.9,2.556,13.437,13.437,0,0,1-4.835,3.88C800.6,724.523,800.148,724.744,799.663,724.992Z" transform="translate(-64.23 -75.379)" fill="#12263f"/>
        <path id="Trazado_1281920" data-name="Trazado 1281920" d="M780.793,617.249c0-.539-.04-1.042.008-1.539a3.122,3.122,0,0,1,2.984-2.668c1.789-.059,3.582-.031,5.373-.013a1.073,1.073,0,0,1,1.137.786.912.912,0,0,1-.414,1.083,1.985,1.985,0,0,1-.964.229c-1.377.024-2.756.007-4.133.012-1.35,0-1.651.276-1.658,1.479,0,.533.01,1.067,0,1.6-.025.962-.309,1.229-1.337,1.29-.3.018-.6.041-.951.066v6.307h16.584v-6.307c-.355-.024-.656-.048-.957-.066-1.03-.061-1.314-.327-1.337-1.289-.014-.6.006-1.193-.005-1.789-.017-.864-.211-1.079-1.138-1.3-.77-.184-1.055-.534-.979-1.2.073-.64.472-.918,1.3-.909a3.212,3.212,0,0,1,3.134,2.639,14.937,14.937,0,0,1,.009,1.6c.3.1.526.174.745.253a2.219,2.219,0,0,1,1.663,2.07c.05,2.133.057,4.269,0,6.4a2.5,2.5,0,0,1-2.462,2.268c-.273.027-.551.014-.826.014-4.96,0-9.922-.063-14.88.032-1.934.038-3.485-1.218-3.341-3.095.122-1.593.025-3.2.025-4.8C778.369,618.559,778.81,617.963,780.793,617.249Z" transform="translate(-54.917)" fill="#12263f"/>
        <path id="Trazado_1281921" data-name="Trazado 1281921" d="M841.973,844.812c0,3.516-.011,7.032,0,10.548a3.042,3.042,0,0,1-1.893,3,5.068,5.068,0,0,1-1.984.374c-4.169.033-8.339.017-12.508.017H815.153a7.446,7.446,0,0,1-.826-.016c-.666-.075-.967-.393-.984-1a.958.958,0,0,1,1-1.084,9.066,9.066,0,0,1,.929-.016h22.122c.31,0,.622.017.93-.01a1.26,1.26,0,0,0,1.307-1.211c.023-.25.007-.5.007-.753q0-10.125,0-20.25a6.2,6.2,0,0,1,.02-.847,1.022,1.022,0,0,1,1.1-.914,1.111,1.111,0,0,1,1.173.865,4.763,4.763,0,0,1,.036.845Q841.976,839.584,841.973,844.812Z" transform="translate(-82.686 -178.254)" fill="#12263f"/>
        <path id="Trazado_1281922" data-name="Trazado 1281922" d="M906.159,664.773q0,6.829,0,13.658a5.806,5.806,0,0,1-.037.94,1.087,1.087,0,0,1-1.081.845,1.109,1.109,0,0,1-1.182-.851,5.553,5.553,0,0,1-.033-.94q0-13.328,0-26.656c0-.251.012-.5,0-.753-.055-.887-.511-1.3-1.506-1.31-2.033-.015-4.066,0-6.1-.005-.276,0-.553.015-.827-.009-.735-.065-1.09-.39-1.122-1-.035-.667.312-1.066,1.063-1.147a12.844,12.844,0,0,1,1.342-.03c1.9,0,3.791,0,5.686,0a3.59,3.59,0,0,1,3.423,1.877,3.786,3.786,0,0,1,.364,1.723C906.171,655.668,906.159,660.221,906.159,664.773Z" transform="translate(-146.871 -28.005)" fill="#12263f"/>
        <path id="Trazado_1281923" data-name="Trazado 1281923" d="M732.357,688.133c0-4.644.011-9.288-.006-13.932a3.134,3.134,0,0,1,2-3.04,2.946,2.946,0,0,1,1.076-.286c.962-.045,1.928-.051,2.891-.024.784.023,1.147.392,1.145,1.056s-.359,1.012-1.157,1.047c-.687.03-1.378,0-2.066.013-1.047.024-1.509.436-1.554,1.371-.012.251,0,.5,0,.753q0,13.273,0,26.546a7.381,7.381,0,0,1-.02.94,1.021,1.021,0,0,1-1.114.9,1.045,1.045,0,0,1-1.174-.946,7.5,7.5,0,0,1-.015-.847Q732.356,694.911,732.357,688.133Z" transform="translate(-18.444 -46.932)" fill="#12263f"/>
        <path id="Trazado_1281924" data-name="Trazado 1281924" d="M770.922,834.709H757.387a7.112,7.112,0,0,1-.826-.014,1.015,1.015,0,0,1-1.039-1.075c0-.62.343-.982,1.045-1.069a7.618,7.618,0,0,1,.928-.027q13.535,0,27.07,0a7.539,7.539,0,0,1,.928.028c.7.088,1.041.452,1.041,1.072a1.019,1.019,0,0,1-1.045,1.072,7.25,7.25,0,0,1-.826.014Z" transform="translate(-36.823 -178.153)" fill="#12263f"/>
        <path id="Trazado_1281925" data-name="Trazado 1281925" d="M791.658,855.834h11.165c.276,0,.552-.011.827.008.781.054,1.144.4,1.139,1.068s-.37.995-1.167,1.046c-.24.016-.482.005-.724.005H780.465a8.212,8.212,0,0,1-.929-.017,1,1,0,0,1-1-1.014,1.02,1.02,0,0,1,1.029-1.078c.307-.031.619-.018.929-.018Z" transform="translate(-55.076 -197.07)" fill="#12263f"/>
        <path id="Trazado_1281926" data-name="Trazado 1281926" d="M812.4,881.119q-4.493,0-8.985,0a6.669,6.669,0,0,1-.927-.028,1.035,1.035,0,0,1-.012-2.059A5.606,5.606,0,0,1,803.3,879q9.036,0,18.073,0c.207,0,.415-.009.619.01.717.066,1.05.4,1.052,1.043s-.333.988-1.041,1.053c-.273.025-.55.012-.826.012Z" transform="translate(-73.33 -215.872)" fill="#12263f"/>
        <path id="Trazado_1281927" data-name="Trazado 1281927" d="M832.87,904.243c-2.206,0-4.412,0-6.618,0-1.085,0-1.615-.351-1.63-1.045s.521-1.078,1.589-1.079q6.825-.007,13.649,0c.138,0,.277-.005.413.008.721.07,1.063.4,1.071,1.036s-.332,1-1.031,1.067c-.273.028-.551.015-.826.015Z" transform="translate(-91.633 -234.633)" fill="#12263f"/>
        <path id="Trazado_1281928" data-name="Trazado 1281928" d="M807.558,659.112h4.136c.207,0,.415-.011.62.007.738.065,1.194.47,1.212,1.063a1.165,1.165,0,0,1-1.149,1.12,1.568,1.568,0,0,1-.206.013c-3.1,0-6.2.013-9.305-.01-.813-.006-1.292-.448-1.313-1.066-.023-.655.487-1.108,1.353-1.12,1.551-.022,3.1-.006,4.653-.006Z" transform="translate(-73.334 -37.415)" fill="#12263f"/>
        <path id="Trazado_1281929" data-name="Trazado 1281929" d="M757.826,707.445c-.025.489-.018.863-.068,1.23-.085.621-.509.919-1.214.892-.654-.024-1.038-.309-1.073-.922a21.6,21.6,0,0,1,0-2.447c.034-.6.443-.952,1.169-.967,1.584-.033,3.17-.036,4.754,0a1.1,1.1,0,0,1,1.188,1.073c.015.643-.438,1.1-1.233,1.129C760.216,707.473,759.079,707.445,757.826,707.445Z" transform="translate(-36.755 -74.825)" fill="#12263f"/>
        <path id="Trazado_1281930" data-name="Trazado 1281930" d="M757.764,742.4a10.368,10.368,0,0,1-.009,1.219,1,1,0,0,1-1.129.874c-.639.005-1.1-.292-1.142-.858a20.666,20.666,0,0,1-.01-2.534,1.021,1.021,0,0,1,1.187-.927,1.045,1.045,0,0,1,1.107.91,1.19,1.19,0,0,1,.014.187c0,.376,0,.751,0,1.127Z" transform="translate(-36.758 -103.202)" fill="#12263f"/>
        <path id="Trazado_1281931" data-name="Trazado 1281931" d="M780.961,959.94c.412,0,.827-.024,1.237,0,.72.05,1.067.392,1.082,1.018a.972.972,0,0,1-1.022,1.07c-.891.042-1.788.04-2.679,0a1,1,0,0,1-1.04-1.062,1.008,1.008,0,0,1,1.082-1.025C780.065,959.915,780.514,959.94,780.961,959.94Z" transform="translate(-55.08 -281.554)" fill="#12263f"/>
      </g>
    </g>
  </g>
</svg>
